<svg xmlns="http://www.w3.org/2000/svg" viewBox="0 0 1429 713" width="1429" height="713">
	<style>
		tspan { white-space:pre }
		.shp0 { fill: #f7f7f7 } 
	</style>
	<path id="Layer" class="shp0" d="M999.3 0.91C1139.35 0.91 1279.4 0.94 1419.44 1C1422.61 1 1425.77 2.49 1428.93 3.28C1426.82 6.01 1424.4 8.56 1422.63 11.5C1283.74 242.17 1144.89 472.83 1006.09 703.5C1004.31 706.5 1003.09 709.8 1001.68 712.96L572.05 712.96C573.94 709.51 575.7 705.96 577.73 702.63C703.01 494.55 828.29 286.45 953.58 78.34C969 52.66 984.08 26.72 999.3 0.91Z" />
	<path id="Layer" class="shp0" d="M427.26 0.91L856.89 0.91C855 4.36 853.25 7.91 851.22 11.24C723.7 223.08 596.18 434.92 468.66 646.75C455.44 668.75 442.66 690.91 429.66 713C289.58 713 149.51 712.97 9.46 712.9C6.31 712.9 3.15 711.42 0 710.63C2.12 707.9 4.54 705.35 6.31 702.41C145.2 471.74 284.04 241.08 422.85 10.41C424.63 7.41 425.8 4.07 427.26 0.91Z" />
</svg>